# xmcd
# Copyright (C) 1995-1998 Ti Kan
#
# Track frame offsets:
#       150
#       16758
#       39663
#       63264
#       81666
#       100491
#       127308
#       147267
#       165153
#       179943
#       200385
#       216813
#       228376
#       246685
#       261583
#       270508
#       290344
#       315810
#
# Disc length: 4661 seconds
#
# Revision: 0
# Processed by: cddbd v1.5.2PL0 Copyright (c) Steve Scherf et al.
# Submitted via: CD-Import v1.0
#
DISCID=14123312
DTITLE=Various Artist - International Music News
DYEAR=05
DGENRE=
TTITLE0=Alice Russel Feat. Tm Juke - Hurry On Now
TTITLE1=Franck Biyong Feat. Wunmi - Power Brain
TTITLE2=Spleen - Bitches On The Ground
TTITLE3=Damn! - Spooky Nerd Part. Ii
TTITLE4=Earl Zinger - Who Killed Saturday Night
TTITLE5=Patchworks Feat. Amp Fiddler - Sugar (Remix)
TTITLE6=Ben Mono - Protection
TTITLE7=Max Sedgley - Devil Inside
TTITLE8=Jazz Liberatorz Feat. T-Love - Force Be With You
TTITLE9=Dobie - B Boy Antem
TTITLE10=The Real Fake Mc - Just Call Me Real Fake
TTITLE11=Big Boss Man - Complicated Lady
TTITLE12=Zdar - Song From The Godfather
TTITLE13=Grand National - Drink To Moving On
TTITLE14=Los Chicros - Never Be A Hit
TTITLE15=Stuck In The Sound - Toyboy
TTITLE16=Whomadewho - Flat Beat
TTITLE17=Siskid Feat. Lou - Skin Flavor
EXTD=
EXTT0=
EXTT1=
EXTT2=
EXTT3=
EXTT4=
EXTT5=
EXTT6=
EXTT7=
EXTT8=
EXTT9=
EXTT10=
EXTT11=
EXTT12=
EXTT13=
EXTT14=
EXTT15=
EXTT16=
EXTT17=
PLAYORDER=
